#!OML:ASF F:\VICON\USERDATA\INSTALL\rory3\rory3.ASF
:FULLY-SPECIFIED
:DEGREES
2376
root -11.1433 18.063 -0.0543379 1076.78 -21.6271 -1078.87
lowerback 10.3902 0.864184 -3.43368
upperback 0.281258 0.761637 0.472055
thorax -5.59238 0.469856 2.31575
lowerneck -23.2933 -4.16589 -10.9374
upperneck 33.7212 -4.26069 6.53385
head 16.4521 -2.29818 3.87026
rclavicle -9.31803e-016 1.78906e-015
rhumerus -36.1238 -10.8944 -80.8073
rradius 29.1167
rwrist 5.86597
rhand -16.2681 8.11105
rfingers 7.12502
rthumb 9.94149 -21.6342
lclavicle -9.31803e-016 1.78906e-015
lhumerus -35.0798 7.40952 82.2718
lradius 31.5572
lwrist -6.77698
lhand -17.4503 25.7291
lfingers 7.12502
lthumb 8.80086 55.5256
rfemur -13.8129 0.404037 19.2285
rtibia 23.8094
rfoot -4.84777 1.41262
rtoes 0.819112
lfemur 6.0025 -4.10713 -24.9979
ltibia 34.7082
lfoot 9.16578 -13.0202
ltoes -14.396
2377
root -11.2217 18.0797 0.0449612 1076.86 -21.2511 -1079.11
lowerback 10.3991 0.829681 -3.19352
upperback 0.297847 0.746252 0.504432
thorax -5.5758 0.455897 2.21649
lowerneck -23.4727 -4.18912 -10.8932
upperneck 33.6424 -4.30724 6.59222
head 16.4608 -2.29699 3.87637
rclavicle 7.29105e-014 -3.97569e-015
rhumerus -36.152 -10.5858 -80.9974
rradius 29.3429
rwrist 5.66778
rhand -16.2274 8.08892
rfingers 7.12502
rthumb 9.98077 -21.6544
lclavicle 7.29105e-014 -3.97569e-015
lhumerus -35.1368 7.58176 82.1131
lradius 31.0121
lwrist -6.98533
lhand -17.4346 25.84
lfingers 7.12502
lthumb 8.81601 55.6359
rfemur -13.0672 0.334948 19.5792
rtibia 23.4203
rfoot -4.95871 1.27921
rtoes 1.74291
lfemur 4.85116 -3.81773 -24.3924
ltibia 36.7048
lfoot 11.7067 -13.7297
ltoes -13.7522
2378
root -11.2959 18.0901 0.148529 1076.98 -20.9139 -1079.36
lowerback 10.2563 0.808522 -2.86117
upperback 0.330453 0.761836 0.490088
thorax -5.45717 0.452625 2.01267
lowerneck -23.5693 -4.21214 -10.7566
upperneck 33.5197 -4.36409 6.55306
head 16.423 -2.30203 3.81819
rclavicle -3.60949e-014 1.09332e-014
rhumerus -36.108 -10.494 -81.1676
rradius 29.4661
rwrist 5.6719
rhand -16.1629 7.97088
rfingers 7.12502
rthumb 10.043 -21.7695
lclavicle -3.60949e-014 1.09332e-014
lhumerus -35.2238 7.43429 81.9961
lradius 30.6305
lwrist -7.09106
lhand -17.1968 26.3724
lfingers 7.12502
lthumb 9.04542 56.1585
rfemur -12.3733 0.143763 19.9186
rtibia 22.9951
rfoot -5.09284 1.28149
rtoes 2.683
lfemur 3.66862 -3.61027 -23.8189
ltibia 38.6861
lfoot 14.0849 -13.9624
ltoes -10.9902
2379
root -11.3667 18.1004 0.250674 1077.09 -20.5184 -1079.76
lowerback 10.2177 0.799379 -2.42749
upperback 0.381426 0.805506 0.552422
thorax -5.37882 0.462331 1.82728
lowerneck -23.6619 -4.28152 -10.6889
upperneck 33.4548 -4.49031 6.57772
head 16.4265 -2.33721 3.78853
rclavicle 4.51769e-015 8.44835e-016
rhumerus -36.0175 -10.5296 -81.2169
rradius 29.4586
rwrist 5.77326
rhand -16.2228 8.1111
rfingers 7.12502
rthumb 9.98521 -21.632
lclavicle 4.51769e-015 8.44835e-016
lhumerus -35.3342 7.19762 81.9842
lradius 30.3564
lwrist -7.17974
lhand -16.8792 26.2832
lfingers 7.12502
lthumb 9.35187 56.0557
rfemur -11.6162 -0.28259 20.4024
rtibia 22.5318
rfoot -5.34937 1.24509
rtoes 2.59434
lfemur 2.53126 -3.51403 -23.1182
ltibia 40.6705
lfoot 16.3499 -14.1506
ltoes -7.01012
2380
root -11.4353 18.1079 0.3485 1077.11 -20.0505 -1080.17
lowerback 10.3798 0.751428 -1.99608
upperback 0.345714 0.794518 0.654877
thorax -5.50202 0.448961 1.69135
lowerneck -23.5234 -4.30564 -10.7648
upperneck 33.4002 -4.55881 6.71107
head 16.3822 -2.35625 3.84531
rclavicle 5.31283e-015 -2.48481e-015
rhumerus -36.1913 -10.2648 -81.2704
rradius 29.6002
rwrist 5.71283
rhand -16.4228 8.38458
rfingers 7.12502
rthumb 9.79224 -21.3677
lclavicle 5.31283e-015 -2.48481e-015
lhumerus -35.6021 7.01833 82.0061
lradius 30.0666
lwrist -7.26649
lhand -16.7995 26.1064
lfingers 7.12502
lthumb 9.42878 55.8755
rfemur -10.7561 -0.640254 20.8904
rtibia 22.0092
rfoot -5.56593 1.10316
rtoes 2.44344
lfemur 1.42791 -3.40536 -22.3952
ltibia 42.6843
lfoot 18.4582 -14.4683
ltoes -2.97288
2381
root -11.5015 18.1165 0.444187 1077.16 -19.6895 -1080.54
lowerback 10.4661 0.705655 -1.57491
upperback 0.311188 0.787762 0.747778
thorax -5.58179 0.436903 1.55123
lowerneck -23.3392 -4.29972 -10.8546
upperneck 33.2803 -4.5556 6.78784
head 16.2843 -2.35488 3.89129
rclavicle -5.79193e-014 3.57812e-015
rhumerus -36.3614 -9.74153 -81.3931
rradius 29.8682
rwrist 5.53746
rhand -16.4702 8.50009
rfingers 7.12502
rthumb 9.74652 -21.2544
lclavicle -5.79193e-014 3.57812e-015
lhumerus -35.85 6.94274 82.0056
lradius 29.794
lwrist -7.43676
lhand -16.2898 26.3072
lfingers 7.12502
lthumb 9.92057 56.0535
rfemur -9.88165 -0.9378 21.3346
rtibia 21.4009
rfoot -5.70438 1.1208
rtoes 2.3808
lfemur 0.267791 -3.17432 -21.7014
ltibia 44.734
lfoot 20.1945 -14.6268
ltoes 0.321426
2382
root -11.566 18.121 0.536436 1077.26 -19.3207 -1080.92
lowerback 10.4325 0.643917 -1.22955
upperback 0.347158 0.755452 0.89083
thorax -5.52115 0.413077 1.51138
lowerneck -23.268 -4.26613 -10.9139
upperneck 33.0637 -4.47708 6.7986
head 16.1528 -2.32305 3.91404
rclavicle -4.72611e-014 -9.49197e-015
rhumerus -36.2615 -9.10623 -81.5367
rradius 30.0778
rwrist 5.21192
rhand -16.3952 8.28868
rfingers 7.12502
rthumb 9.81888 -21.4624
lclavicle -4.72611e-014 -9.49197e-015
lhumerus -35.9024 7.02762 82.0341
lradius 29.4741
lwrist -7.80014
lhand -15.8112 26.2438
lfingers 7.12502
lthumb 10.3823 55.9675
rfemur -9.08312 -1.26202 21.8069
rtibia 20.7803
rfoot -5.81765 1.06779
rtoes 1.33324
lfemur -0.983759 -2.94357 -21.0191
ltibia 46.7664
lfoot 21.2145 -14.7379
ltoes 2.47801
2383
root -11.6299 18.1238 0.62544 1077.37 -18.8744 -1081.39
lowerback 10.4809 0.616225 -0.806637
upperback 0.41236 0.77615 1.02998
thorax -5.47671 0.413336 1.41512
lowerneck -23.3313 -4.30207 -10.8899
upperneck 32.9074 -4.53371 6.83068
head 16.098 -2.33242 3.90628
rclavicle -6.10269e-014 -9.34288e-015
rhumerus -36.0736 -8.84426 -81.6173
rradius 30.1635
rwrist 5.1289
rhand -16.4514 8.32796
rfingers 7.12502
rthumb 9.76466 -21.4257
lclavicle -6.10269e-014 -9.34288e-015
lhumerus -35.8149 6.82566 82.1262
lradius 29.1474
lwrist -8.15308
lhand -15.6502 25.8895
lfingers 7.12502
lthumb 10.5376 55.6054
rfemur -8.30249 -1.51017 22.3946
rtibia 20.1763
rfoot -5.96968 0.802137
rtoes 0.606877
lfemur -2.23283 -2.75217 -20.233
ltibia 48.7452
lfoot 21.5335 -15.153
ltoes 3.2031
2384
root -11.6921 18.129 0.715584 1077.38 -18.5264 -1081.79
lowerback 10.6314 0.653645 -0.370846
upperback 0.436365 0.880952 1.08612
thorax -5.53345 0.454446 1.21108
lowerneck -23.1786 -4.38038 -10.8745
upperneck 32.739 -4.70937 6.94295
head 16.0053 -2.38459 3.91037
rclavicle -5.03484e-015 1.44119e-014
rhumerus -35.9867 -8.78527 -81.6541
rradius 30.2019
rwrist 5.14923
rhand -16.461 8.39058
rfingers 7.12502
rthumb 9.75539 -21.3635
lclavicle -5.03484e-015 1.44119e-014
lhumerus -35.8666 6.40372 82.2249
lradius 28.9601
lwrist -8.40059
lhand -15.6986 25.6561
lfingers 7.12502
lthumb 10.4909 55.3743
rfemur -7.49387 -1.75143 22.8912
rtibia 19.6139
rfoot -6.12567 0.631025
rtoes 0.511164
lfemur -3.36935 -2.45119 -19.5476
ltibia 50.6102
lfoot 21.0471 -15.5381
ltoes 3.05192
2385
root -11.7513 18.1318 0.80524 1077.33 -18.2921 -1082.17
lowerback 10.8841 0.687476 0.00711089
upperback 0.459428 0.97919 1.1999
thorax -5.64906 0.494332 1.09982
lowerneck -22.98 -4.42231 -10.9558
upperneck 32.482 -4.7647 6.99243
head 15.8463 -2.40721 3.92473
rclavicle 4.16205e-016 8.69683e-015
rhumerus -35.8537 -8.45166 -81.6901
rradius 30.3084
rwrist 5.17628
rhand -16.2921 7.99125
rfingers 7.12502
rthumb 9.91837 -21.7551
lclavicle 4.16205e-016 8.69683e-015
lhumerus -36.0118 6.16198 82.3642
lradius 28.8787
lwrist -8.66229
lhand -15.6863 25.6073
lfingers 7.12502
lthumb 10.5028 55.325
rfemur -6.67031 -2.03202 23.3591
rtibia 19.0911
rfoot -6.25754 0.582411
rtoes 0.605206
lfemur -4.39254 -1.9801 -18.9079
ltibia 52.3477
lfoot 19.634 -15.927
ltoes 1.05719
2386
root -11.8111 18.1314 0.89305 1077.27 -18.0649 -1082.48
lowerback 11.1432 0.751064 0.285566
upperback 0.49075 1.10533 1.29078
thorax -5.76059 0.549874 1.01569
lowerneck -22.8959 -4.46737 -11.063
upperneck 32.3407 -4.83272 7.11308
head 15.7755 -2.42909 3.97722
rclavicle 8.93289e-015 -5.1684e-015
rhumerus -35.6567 -8.299 -81.7009
rradius 30.3608
rwrist 5.42306
rhand -15.9873 7.33076
rfingers 7.12502
rthumb 10.2124 -22.4013
lclavicle 8.93289e-015 -5.1684e-015
lhumerus -36.0326 5.78986 82.544
lradius 28.7512
lwrist -8.76795
lhand -15.6537 25.5983
lfingers 7.12502
lthumb 10.5342 55.3143
rfemur -5.91931 -2.15978 23.7776
rtibia 18.6841
rfoot -6.41363 0.379631
rtoes 0.57144
lfemur -5.40968 -1.48538 -18.3466
ltibia 53.9327
lfoot 17.822 -15.8698
ltoes -0.469233
2387
root -11.8691 18.1286 0.98121 1077.25 -17.7954 -1082.68
lowerback 11.3016 0.795812 0.52007
upperback 0.492746 1.19645 1.29105
thorax -5.84408 0.588147 0.867327
lowerneck -22.7904 -4.49276 -11.1481
upperneck 32.2471 -4.92725 7.34115
head 15.7291 -2.44582 4.06976
rclavicle -4.8797e-014 -2.83268e-015
rhumerus -35.5957 -8.26799 -81.7243
rradius 30.4013
rwrist 5.50434
rhand -15.5965 8.07271
rfingers 7.12502
rthumb 10.5894 -21.6405
lclavicle -4.8797e-014 -2.83268e-015
lhumerus -35.9987 5.54681 82.5652
lradius 28.5554
lwrist -9.01955
lhand -15.57 25.4198
lfingers 7.12502
lthumb 10.615 55.1317
rfemur -5.32449 -2.32482 24.0756
rtibia 18.4075
rfoot -6.60256 0.174196
rtoes -0.0471096
lfemur -6.47745 -1.01176 -17.9395
ltibia 55.3515
lfoot 15.9428 -15.4348
ltoes -0.783394
2388
root -11.9254 18.1258 1.06745 1077.3 -17.5242 -1082.69
lowerback 11.3738 0.851937 0.530457
upperback 0.390186 1.27646 1.30765
thorax -5.99409 0.627409 0.864444
lowerneck -22.5853 -4.48271 -11.2107
upperneck 32.2034 -4.93703 7.41866
head 15.6672 -2.44882 4.11126
rclavicle 3.33275e-015 -1.78906e-015
rhumerus -35.6118 -7.986 -81.7035
rradius 30.2585
rwrist 5.15998
rhand -15.6558 9.84962
rfingers 7.12502
rthumb 10.5322 -19.8665
lclavicle 3.33275e-015 -1.78906e-015
lhumerus -36.2249 5.77568 82.4921
lradius 28.4947
lwrist -9.62938
lhand -15.6622 25.2015
lfingers 7.12502
lthumb 10.526 54.918
rfemur -4.94695 -2.54608 24.187
rtibia 18.2336
rfoot -6.8196 0.0183115
rtoes -1.17542
lfemur -7.64195 -0.604264 -17.7643
ltibia 56.561
lfoot 14.1253 -14.706
ltoes -0.216785
2389
root -11.9808 18.1284 1.15668 1077.33 -17.3507 -1082.68
lowerback 11.393 0.936147 0.485142
upperback 0.343227 1.38565 1.33787
thorax -6.05774 0.682762 0.903271
lowerneck -22.5225 -4.48778 -11.3313
upperneck 32.2557 -4.939 7.51251
head 15.686 -2.45324 4.17579
rclavicle -7.05375e-015 1.33186e-014
rhumerus -35.4805 -7.7168 -81.6449
rradius 30.0056
rwrist 5.04847
rhand -16.0183 10.9174
rfingers 7.12502
rthumb 10.1825 -18.8162
lclavicle -7.05375e-015 1.33186e-014
lhumerus -36.5373 6.16889 82.3957
lradius 28.6025
lwrist -10.3142
lhand -15.8231 25.1723
lfingers 7.12502
lthumb 10.3708 54.8966
rfemur -4.5569 -2.52424 24.2525
rtibia 18.1483
rfoot -7.08247 -0.251076
rtoes -1.82429
lfemur -8.72075 -0.0944689 -17.6401
ltibia 57.5287
lfoot 12.2098 -13.9868
ltoes -0.844767
2390
root -12.0334 18.1298 1.25271 1077.28 -17.2793 -1082.73
lowerback 11.3832 1.03303 0.584101
upperback 0.414847 1.52441 1.31608
thorax -5.97528 0.747719 0.802485
lowerneck -22.5448 -4.5254 -11.382
upperneck 32.2814 -5.01263 7.62271
head 15.7191 -2.47435 4.21969
rclavicle -1.42488e-014 -2.3059e-014
rhumerus -35.1124 -7.80013 -81.6062
rradius 29.6952
rwrist 5.3228
rhand -16.389 10.9373
rfingers 7.12502
rthumb 9.82486 -18.8135
lclavicle -1.42488e-014 -2.3059e-014
lhumerus -36.6162 6.42921 82.2892
lradius 28.5987
lwrist -10.6856
lhand -16.0079 25.4017
lfingers 7.12502
lthumb 10.1926 55.1347
rfemur -4.06025 -2.39183 24.352
rtibia 18.2046
rfoot -7.45872 -0.499776
rtoes -1.24622
lfemur -9.61225 0.488784 -17.496
ltibia 58.2409
lfoot 10.55 -13.1475
ltoes -1.07736
